<svg width="746" height="696" viewBox="0 0 746 696" fill="none" xmlns="http://www.w3.org/2000/svg">
<path d="M387.078 593.192C341.498 619.861 135.854 646.674 17.4187 659.084C5.52485 660.33 2.10387 671.283 13.4392 675.095C115.88 709.54 515.902 680.698 589.707 604.929C593.167 601.377 597.622 599.009 602.564 598.606C664.745 593.537 710.266 551.125 727.459 527.584C728.654 525.948 730.103 524.497 731.784 523.367C741.673 516.717 741.195 501.902 730.806 496.065L717.269 488.459C716.608 488.088 715.903 487.755 715.194 487.487C693.656 479.334 681.632 480.658 671.06 481.058C662.096 481.397 657.087 472.613 658.563 463.764C679.942 335.571 559.538 0.971908 529.535 6.57314C498.203 12.4226 558.779 305.732 560.868 317.431C562.495 326.546 547.876 366.257 539.78 386.462C539.357 387.519 538.832 388.504 538.187 389.441C523.767 410.424 492 452.01 472.72 461.161C454.029 470.032 317.747 421.79 241.568 392.659C237.369 391.054 233.432 395.503 235.493 399.498C235.994 400.468 236.805 401.242 237.797 401.697L316.476 437.763C334.162 446.676 368.613 467.512 364.937 479.545C361.282 491.506 242.842 519.046 183.026 531.549C182.317 531.697 181.706 532.077 181.245 532.636C179.409 534.867 181.255 538.193 184.12 537.813L340.669 517.068C342.354 516.845 344.064 516.891 345.735 517.206L418.15 530.857C421.313 531.453 424.397 532.902 425.945 535.725C431.83 546.455 429.995 568.08 387.078 593.192Z" fill="#9BB5E5" stroke="#9BB5E5" stroke-width="13" stroke-linecap="round"/>
</svg>
