<svg width="469" height="491" viewBox="0 0 469 491" fill="none" xmlns="http://www.w3.org/2000/svg">
<path d="M139.502 220.613C128.502 146.113 160.527 27.2762 246.002 14.6132C327.002 2.61329 368.143 14.5719 413.002 44.1132C454.002 71.1133 457.502 138.78 458.002 173.613C443.335 217.113 428.002 284.613 404.002 317.113C393.272 331.643 374.502 428.113 352.002 451.113C333.683 469.839 302.002 495.613 218.502 468.113C153.218 446.613 153.296 367.964 161.89 328.779C162.258 327.102 163.488 325.779 165.113 325.227L213.572 308.786C216.262 307.873 219.168 309.378 220.001 312.094C228.321 339.232 244.854 385.362 255.002 386.113C265.038 386.857 288.517 378.159 301.284 372.778C302.907 372.095 303.866 370.423 303.632 368.678C301.384 351.946 294.924 320.295 284.002 307.113C269.502 289.613 344.002 238.613 309.502 206.613C275.002 174.613 236.502 213.613 235.002 225.113C233.502 236.613 202.002 154.613 218.502 126.613C235.002 98.6132 267.002 72.1132 309.502 84.1132C352.002 96.1132 393.002 99.1132 383.502 220.613" stroke="#9BB5E5" stroke-width="20" stroke-linecap="round"/>
<circle cx="216.002" cy="292.613" r="48" fill="#5E88D8"/>
<path d="M104.502 256.613L47.6339 244.864C46.0752 244.542 45.4989 242.616 46.6244 241.491L71.3925 216.723C72.5153 215.6 71.9448 213.679 70.3911 213.352L10.002 200.613" stroke="#5E88D8" stroke-width="20" stroke-linecap="round"/>
<path d="M13.002 369.613L69.87 357.864C71.4287 357.542 72.005 355.616 70.8795 354.491L46.1114 329.723C44.9886 328.6 45.5591 326.679 47.1129 326.352L107.502 313.613" stroke="#5E88D8" stroke-width="20" stroke-linecap="round"/>
</svg>
