<svg width="487" height="458" viewBox="0 0 487 458" fill="none" xmlns="http://www.w3.org/2000/svg">
<path d="M68.7832 402.048H42.2553C28.3235 402.048 17.0296 413.342 17.0296 427.274C17.0296 441.206 28.3235 452.5 42.2554 452.5H440.393C454.325 452.5 465.619 441.206 465.619 427.274C465.619 413.342 454.325 402.048 440.393 402.048H408.781C407.124 402.048 405.781 400.705 405.781 399.048V347.352C405.781 307.749 396.206 268.732 377.874 233.627L375.337 228.768C359.513 198.469 332.364 175.644 299.797 165.26C262.63 153.41 222.717 153.286 185.477 164.907L183.011 165.677C150.478 175.829 122.977 197.89 106.009 227.446L104.453 230.158C83.047 267.445 71.7832 309.69 71.7832 352.684V399.048C71.7832 400.705 70.4401 402.048 68.7832 402.048Z" fill="#9BB5E5" stroke="#9BB5E5" stroke-width="10" stroke-linecap="round"/>
<rect x="224.702" y="262.035" width="32.8522" height="98.5566" rx="11" fill="#5E88D8"/>
<rect x="191.85" y="327.74" width="32.8522" height="98.5566" rx="11" transform="rotate(-90 191.85 327.74)" fill="#5E88D8"/>
<rect y="145.145" width="19.5549" height="96.1826" rx="8" transform="rotate(-59.71 0 145.145)" fill="#5E88D8"/>
<rect x="93.2936" y="44.9655" width="19.5549" height="96.1826" rx="8" transform="rotate(-29.9638 93.2936 44.9655)" fill="#5E88D8"/>
<rect x="376.493" y="33.3709" width="19.5549" height="96.1826" rx="8" transform="rotate(30.4941 376.493 33.3709)" fill="#5E88D8"/>
<rect x="476.34" y="127.021" width="19.5549" height="96.1826" rx="8" transform="rotate(60.2402 476.34 127.021)" fill="#5E88D8"/>
<rect x="233.307" width="19.5549" height="96.1826" rx="8" fill="#5E88D8"/>
</svg>
