<svg width="457" height="460" viewBox="0 0 457 460" fill="none" xmlns="http://www.w3.org/2000/svg">
<path d="M126.94 87.2885L21.0396 59.354C12.9243 57.2134 8.50318 48.4626 11.5948 40.66L22.2192 13.8459C24.8246 7.27051 31.925 3.67105 38.7687 5.45636L138.151 31.3821C155.658 35.9492 171.841 44.5828 185.383 56.5811L221.782 88.8295L250.028 111.803C255.263 116.06 262.884 115.605 267.575 110.755L280.176 97.728C284.995 92.7447 292.878 92.4206 298.091 96.9914L381.628 170.241C386.569 174.573 387.5 181.91 383.798 187.339L379.23 194.039C376.766 197.653 376.285 202.265 377.95 206.31L450.79 383.275C452.193 386.682 450.714 390.593 447.408 392.22L395.426 417.798C392.434 419.27 388.82 418.428 386.787 415.786L378.703 405.276C376.704 402.678 373.169 401.815 370.197 403.2L285.774 442.553C267.272 451.177 245.534 440.507 241.039 420.594L176.161 133.153C174.941 127.746 172.024 122.87 167.836 119.238L137.346 92.7885C134.344 90.1839 130.784 88.3023 126.94 87.2885Z" fill="#9BB5E5" stroke="#9BB5E5" stroke-width="10" stroke-linecap="round"/>
<path d="M51.7823 124.329C17.6156 164.663 -31.2177 246.329 46.7823 250.329C124.782 254.329 82.6156 167.996 51.7823 124.329Z" fill="#5E88D8" stroke="#5E88D8" stroke-width="10" stroke-linecap="round"/>
</svg>
