<svg width="1520" height="864" viewBox="0 0 1520 864" fill="none" xmlns="http://www.w3.org/2000/svg">
<path d="M134.324 619.183L9.01297 592.932C4.76929 592.043 2.84061 587.084 5.36816 583.561L18.8051 564.833C19.5963 563.73 20.738 562.928 22.0438 562.558L137.061 529.955C143.728 528.065 149.457 523.77 153.141 517.901L381.646 153.803C384.947 148.543 389.18 143.931 394.138 140.193L429.946 113.191C433.432 110.563 437.314 108.508 441.447 107.104L470.038 97.3944C482.815 93.0553 495.917 103.046 495.114 116.515L492.521 160.035C492.026 168.342 489.505 176.403 485.179 183.513L413.021 302.092C408.793 309.04 407.465 317.371 409.323 325.289L468.955 579.407C473.704 599.647 470.284 620.944 459.435 638.679L447.861 657.6C444.763 662.664 437.163 661.815 435.259 656.191L349.995 404.289C348.668 400.369 343.426 399.666 341.113 403.097L247.1 542.564C243.319 548.173 238.824 553.266 233.729 557.716L175.739 608.357C164.397 618.262 149.063 622.271 134.324 619.183Z" fill="#9BB5E5"/>
<path d="M63.5701 405.308L181.096 405.57C184.888 405.579 188.418 403.633 190.435 400.421L245.008 313.531C246.439 311.254 244.382 308.39 241.767 309.019L104.542 341.992C96.3119 343.97 89.2003 349.128 84.7645 356.338L59.3228 397.688C57.2757 401.015 59.6637 405.3 63.5701 405.308Z" fill="#9BB5E5"/>
<circle cx="458.198" cy="265.775" r="34" transform="rotate(-75.6787 458.198 265.775)" fill="#9BB5E5"/>
<path d="M637.562 624.224H603.362L546.162 537.624V624.224H511.962V483.824H546.162L603.362 570.824V483.824H637.562V624.224Z" fill="#5E88D8"/>
<path d="M412.87 698.824V726.224H355.67V755.824H398.47V782.424H355.67V839.224H321.47V698.824H412.87Z" fill="#5E88D8"/>
<path d="M515.701 812.824H560.501V839.224H481.501V698.824H515.701V812.824Z" fill="#5E88D8"/>
<path d="M686.865 698.824V839.224H652.665V698.824H686.865Z" fill="#5E88D8"/>
<path d="M871.185 743.224C868.652 738.557 864.985 735.024 860.185 732.624C855.519 730.091 849.985 728.824 843.585 728.824C832.519 728.824 823.652 732.491 816.985 739.824C810.319 747.024 806.985 756.691 806.985 768.824C806.985 781.757 810.452 791.891 817.385 799.224C824.452 806.424 834.119 810.024 846.385 810.024C854.785 810.024 861.852 807.891 867.585 803.624C873.452 799.357 877.719 793.224 880.385 785.224H836.985V760.024H911.385V791.824C908.852 800.357 904.519 808.291 898.385 815.624C892.385 822.957 884.719 828.891 875.385 833.424C866.052 837.957 855.519 840.224 843.785 840.224C829.919 840.224 817.519 837.224 806.585 831.224C795.785 825.091 787.319 816.624 781.185 805.824C775.185 795.024 772.185 782.691 772.185 768.824C772.185 754.957 775.185 742.624 781.185 731.824C787.319 720.891 795.785 712.424 806.585 706.424C817.385 700.291 829.719 697.224 843.585 697.224C860.385 697.224 874.519 701.291 885.985 709.424C897.585 717.557 905.252 728.824 908.985 743.224H871.185Z" fill="#5E88D8"/>
<path d="M1094.61 698.824V839.224H1060.41V781.424H1007.21V839.224H973.013V698.824H1007.21V753.824H1060.41V698.824H1094.61Z" fill="#5E88D8"/>
<path d="M1268.08 698.824V726.224H1230.88V839.224H1196.68V726.224H1159.48V698.824H1268.08Z" fill="#5E88D8"/>
<path d="M1363.25 745.824C1352.32 745.824 1342.45 743.491 1333.65 738.824C1324.98 734.157 1318.12 727.491 1313.05 718.824C1308.12 710.157 1305.65 700.024 1305.65 688.424C1305.65 676.957 1308.18 666.891 1313.25 658.224C1318.32 649.424 1325.25 642.691 1334.05 638.024C1342.85 633.357 1352.72 631.024 1363.65 631.024C1374.58 631.024 1384.45 633.357 1393.25 638.024C1402.05 642.691 1408.98 649.424 1414.05 658.224C1419.12 666.891 1421.65 676.957 1421.65 688.424C1421.65 699.891 1419.05 710.024 1413.85 718.824C1408.78 727.491 1401.78 734.157 1392.85 738.824C1384.05 743.491 1374.18 745.824 1363.25 745.824ZM1363.25 716.224C1369.78 716.224 1375.32 713.824 1379.85 709.024C1384.52 704.224 1386.85 697.357 1386.85 688.424C1386.85 679.491 1384.58 672.624 1380.05 667.824C1375.65 663.024 1370.18 660.624 1363.65 660.624C1356.98 660.624 1351.45 663.024 1347.05 667.824C1342.65 672.491 1340.45 679.357 1340.45 688.424C1340.45 697.357 1342.58 704.224 1346.85 709.024C1351.25 713.824 1356.72 716.224 1363.25 716.224ZM1495.79 661.024H1477.39V744.224H1443.19V661.024H1430.79V632.624H1443.19V629.424C1443.19 615.691 1447.13 605.291 1454.99 598.224C1462.86 591.024 1474.39 587.424 1489.59 587.424C1492.13 587.424 1493.99 587.491 1495.19 587.624V616.624C1488.66 616.224 1484.06 617.157 1481.39 619.424C1478.73 621.691 1477.39 625.757 1477.39 631.624V632.624H1495.79V661.024Z" fill="#9BB5E5"/>
<path d="M771.827 599.424H719.427L711.027 624.224H675.227L726.027 483.824H765.627L816.427 624.224H780.227L771.827 599.424ZM763.027 573.024L745.627 521.624L728.427 573.024H763.027Z" fill="#5E88D8"/>
<path d="M946.075 483.824V511.224H908.875V624.224H874.675V511.224H837.475V483.824H946.075Z" fill="#5E88D8"/>
<path d="M1040.94 625.624C1027.74 625.624 1015.61 622.557 1004.54 616.424C993.611 610.291 984.877 601.757 978.344 590.824C971.944 579.757 968.744 567.357 968.744 553.624C968.744 539.891 971.944 527.557 978.344 516.624C984.877 505.691 993.611 497.157 1004.54 491.024C1015.61 484.891 1027.74 481.824 1040.94 481.824C1054.14 481.824 1066.21 484.891 1077.14 491.024C1088.21 497.157 1096.88 505.691 1103.14 516.624C1109.54 527.557 1112.74 539.891 1112.74 553.624C1112.74 567.357 1109.54 579.757 1103.14 590.824C1096.74 601.757 1088.08 610.291 1077.14 616.424C1066.21 622.557 1054.14 625.624 1040.94 625.624ZM1040.94 594.424C1052.14 594.424 1061.08 590.691 1067.74 583.224C1074.54 575.757 1077.94 565.891 1077.94 553.624C1077.94 541.224 1074.54 531.357 1067.74 524.024C1061.08 516.557 1052.14 512.824 1040.94 512.824C1029.61 512.824 1020.54 516.491 1013.74 523.824C1007.08 531.157 1003.74 541.091 1003.74 553.624C1003.74 566.024 1007.08 575.957 1013.74 583.424C1020.54 590.757 1029.61 594.424 1040.94 594.424Z" fill="#5E88D8"/>
<path d="M1312.36 483.824V624.224H1278.16V540.024L1246.76 624.224H1219.16L1187.56 539.824V624.224H1153.36V483.824H1193.76L1233.16 581.024L1272.16 483.824H1312.36Z" fill="#5E88D8"/>
<path d="M1475.47 483.824L1426.87 577.824V624.224H1392.67V577.824L1344.07 483.824H1382.87L1410.07 542.624L1437.07 483.824H1475.47Z" fill="#5E88D8"/>
<path d="M203.757 530.224H437.757" stroke="#9BB5E5" stroke-width="39"/>
</svg>
