<svg width="514" height="515" viewBox="0 0 514 515" fill="none" xmlns="http://www.w3.org/2000/svg">
<path d="M192.505 123.65L39.4662 380.501C29.1329 411.001 -13.5333 443.001 27.4663 486.001C66.2831 526.712 108.685 489.103 127.889 472.07L127.966 472.001L387.771 320.408C391.16 318.43 391.77 313.784 389.005 310.999L201.918 122.494C199.156 119.712 194.511 120.282 192.505 123.65Z" fill="#9BB5E5"/>
<path d="M221.467 428.501C231.3 442.501 244.167 475.501 216.967 495.501C189.767 515.501 158.967 488.168 146.967 472.001M39.4662 380.501L192.505 123.65C194.511 120.282 199.156 119.712 201.918 122.494L389.005 310.999C391.77 313.784 391.16 318.43 387.771 320.408L127.966 472.001C108.8 489.001 66.3354 526.767 27.4663 486.001C-13.5333 443.001 29.1329 411.001 39.4662 380.501Z" stroke="#9BB5E5" stroke-width="20" stroke-linecap="round"/>
<path d="M397.467 260.001L463.381 241.936C464.104 241.738 464.36 240.844 463.851 240.293L435.835 209.942C435.394 209.464 435.519 208.699 436.09 208.386L503.467 171.501" stroke="#5E88D8" stroke-width="20" stroke-linecap="round"/>
<path d="M358.467 196.501L418.719 166.62C419.332 166.316 419.466 165.5 418.982 165.017L396.044 142.079C395.535 141.57 395.715 140.706 396.384 140.442L432.967 126.001" stroke="#5E88D8" stroke-width="20" stroke-linecap="round"/>
<path d="M322.967 137.001L365.779 67.6163C366.125 67.0549 366.911 66.9768 367.361 67.4591L393.596 95.5684C394.039 96.0429 394.809 95.9764 395.164 95.433L450.967 10.0012" stroke="#5E88D8" stroke-width="20" stroke-linecap="round"/>
<path d="M256.967 106.501L273.009 47.1926C273.211 46.4452 274.15 46.2011 274.69 46.7553L292.361 64.8677C292.874 65.3937 293.76 65.205 294.015 64.5155L312.467 14.5012" stroke="#5E88D8" stroke-width="20" stroke-linecap="round"/>
<circle cx="467.467" cy="106.501" r="12.5" fill="#5E88D8"/>
</svg>
