<svg width="966" height="573" viewBox="0 0 966 573" fill="none" xmlns="http://www.w3.org/2000/svg">
<path d="M492.5 186C581.636 186 657 266.797 657 370.5C657 474.203 581.636 555 492.5 555C403.364 555 328 474.203 328 370.5C328 266.797 403.364 186 492.5 186Z" stroke="#5E88D8" stroke-width="36"/>
<path d="M177.5 386.888V276C177.5 267.163 184.663 260 193.5 260H263C271.837 260 279 267.163 279 276V335.883C279 346.634 289.392 354.326 299.674 351.185L432.872 310.497C433.602 310.274 434.302 310.918 434.141 311.664L409.628 425.406C409.549 425.771 409.274 426.062 408.914 426.16L276.277 462.333C259.26 466.974 241.174 465.726 224.956 458.792C196.171 446.483 177.5 418.194 177.5 386.888Z" fill="#9BB5E5" stroke="#9BB5E5" stroke-width="13"/>
<rect x="147" y="126" width="164" height="149" rx="37" fill="#9BB5E5"/>
<path d="M812 386.888V276C812 267.163 804.837 260 796 260H726.5C717.663 260 710.5 267.163 710.5 276V335.883C710.5 346.634 700.108 354.326 689.826 351.185L555 310L580 426L713.223 462.333C730.24 466.974 748.326 465.726 764.544 458.792C793.329 446.483 812 418.194 812 386.888Z" fill="#9BB5E5" stroke="#9BB5E5" stroke-width="13"/>
<path d="M450.031 261.509L413.263 425.982C410.051 440.354 420.983 454 435.709 454H550.695C565.291 454 576.195 440.581 573.209 426.294L538.809 261.726C537.259 254.312 530.722 249 523.147 249H465.645C458.154 249 451.665 254.198 450.031 261.509Z" fill="#5E88D8" stroke="#5E88D8" stroke-width="13"/>
<rect x="676" y="126" width="164" height="149" rx="37" fill="#9BB5E5"/>
<path d="M80.1764 159.368C84.6479 137.687 107.736 92.6771 164.318 86.0846" stroke="#5E88D8" stroke-width="24" stroke-linecap="round"/>
<path d="M23.5022 156.162C29.6923 122.657 60.8359 50.7165 135.889 31.0001" stroke="#5E88D8" stroke-width="24" stroke-linecap="round"/>
<path d="M826 78.1289C847.578 83.0738 892.072 107.142 897.424 163.854" stroke="#5E88D8" stroke-width="24" stroke-linecap="round"/>
<path d="M830.445 21.5384C863.807 28.4604 935.049 61.1711 953.118 136.638" stroke="#5E88D8" stroke-width="24" stroke-linecap="round"/>
</svg>
