<svg width="215" height="494" viewBox="0 0 215 494" fill="none" xmlns="http://www.w3.org/2000/svg">
<path d="M191.074 0.0456982L52.5843 16.7518C45.3568 17.6237 39.629 23.2647 38.6468 30.478L20.099 166.699L0.0639334 305.775C-0.586044 310.287 3.83441 313.847 8.10416 312.251L65.6797 290.721C67.9896 289.857 70.2971 291.995 69.6126 294.364L13.2892 489.301C12.3129 492.68 16.9461 494.691 18.7479 491.67L213.268 165.539C216.127 160.746 211.467 154.988 206.184 156.785L102.582 192.012C99.9906 192.893 97.6696 190.129 98.9854 187.729L197.053 8.88735C199.401 4.60492 195.922 -0.539226 191.074 0.0456982Z" fill="#0146C7" fill-opacity="0.37"/>
</svg>
