<svg width="387" height="503" viewBox="0 0 387 503" fill="none" xmlns="http://www.w3.org/2000/svg">
<path d="M203 19.7334L21.5 98.2334V260.233C32.1667 358.067 100 427.233 203 483.733" stroke="#5E88D8" stroke-width="43"/>
<path d="M186 19.7334L365.5 98.7334V260.733C354.833 358.567 285 427.233 182 483.733" stroke="#5E88D8" stroke-width="43"/>
<path d="M177.368 142.233V208.565C177.368 209.603 176.832 210.566 175.951 211.114L85.417 267.353C84.5359 267.901 84 268.864 84 269.902V288.135C84 290.164 85.9724 291.608 87.9066 290.995L173.462 263.872C175.396 263.259 177.368 264.703 177.368 266.732V325.537C177.368 326.479 176.926 327.367 176.173 327.934L155.722 343.333C154.97 343.9 154.527 344.788 154.527 345.73V358.215C154.527 360.22 156.457 361.661 158.38 361.091L195 350.233" stroke="#9BB5E5" stroke-width="10"/>
<path d="M209.632 142.233V208.565C209.632 209.603 210.168 210.566 211.049 211.114L301.583 267.353C302.464 267.901 303 268.864 303 269.902V288.135C303 290.164 301.028 291.608 299.093 290.995L213.538 263.872C211.604 263.259 209.632 264.703 209.632 266.732V325.537C209.632 326.479 210.074 327.367 210.827 327.934L231.278 343.333C232.03 343.9 232.473 344.788 232.473 345.73V358.215C232.473 360.22 230.543 361.661 228.62 361.091L192 350.233" stroke="#9BB5E5" stroke-width="10"/>
<path d="M177 144.233C182.167 126.122 196 100.767 210 144.233" stroke="#9BB5E5" stroke-width="10"/>
</svg>
