<svg width="519" height="338" viewBox="0 0 519 338" fill="none" xmlns="http://www.w3.org/2000/svg">
<path d="M36.0228 225.062C31.3625 224.497 27.1266 227.817 26.5618 232.477C25.9969 237.137 29.3169 241.373 33.9772 241.938L35 233.5L36.0228 225.062ZM487 41L494.827 44.3155L498.476 35.7004L489.551 32.892L487 41ZM418.051 10.392C413.574 8.98284 408.801 11.4706 407.392 15.9485C405.983 20.4265 408.471 25.1989 412.949 26.608L415.5 18.5L418.051 10.392ZM448.673 109.685C446.842 114.007 448.862 118.996 453.185 120.827C457.507 122.658 462.496 120.638 464.327 116.315L456.5 113L448.673 109.685ZM387.251 83.6882L386.084 92.1077L387.251 83.6882ZM336.201 81.0651L343.202 85.8854L336.201 81.0651ZM343.889 77.6776L342.722 86.0971L343.889 77.6776ZM96.0285 240.897L97.0513 232.459L96.0285 240.897ZM103.714 237.291L110.858 241.898L103.714 237.291ZM35 233.5L33.9772 241.938L95.0057 249.336L96.0285 240.897L97.0513 232.459L36.0228 225.062L35 233.5ZM103.714 237.291L110.858 241.898L152.643 177.107L145.5 172.5L138.357 167.893L96.5709 232.685L103.714 237.291ZM318 107.5L325.001 112.32L343.202 85.8854L336.201 81.0651L329.2 76.2447L310.999 102.68L318 107.5ZM343.889 77.6776L342.722 86.0971L386.084 92.1077L387.251 83.6882L388.418 75.2687L345.056 69.2581L343.889 77.6776ZM391.578 83.0838L395.007 90.861L490.43 48.7772L487 41L483.57 33.2228L388.148 75.3065L391.578 83.0838ZM487 41L489.551 32.892L418.051 10.392L415.5 18.5L412.949 26.608L484.449 49.108L487 41ZM487 41L479.173 37.6845L448.673 109.685L456.5 113L464.327 116.315L494.827 44.3155L487 41ZM387.251 83.6882L386.084 92.1077C389.116 92.5281 392.206 92.0964 395.007 90.861L391.578 83.0838L388.148 75.3065C388.232 75.2691 388.326 75.256 388.418 75.2687L387.251 83.6882ZM336.201 81.0651L343.202 85.8854C343.095 86.0412 342.909 86.1231 342.722 86.0971L343.889 77.6776L345.056 69.2581C338.875 68.4014 332.739 71.1049 329.2 76.2447L336.201 81.0651ZM96.0285 240.897L95.0057 249.336C101.278 250.096 107.433 247.208 110.858 241.898L103.714 237.291L96.5709 232.685C96.6747 232.524 96.8612 232.436 97.0513 232.459L96.0285 240.897Z" fill="#0146C7" fill-opacity="0.62"/>
<path d="M89.7907 172.337L7.17866 47.36C4.10253 42.7064 7.43976 36.5 13.0182 36.5H47.0682C48.9438 36.5 50.7409 37.2527 52.0567 38.5894L108.593 96.0228C111.412 98.887 115.263 100.5 119.282 100.5H440.793C448.721 100.5 456.439 103.047 462.811 107.764L498.252 134.007C507.388 140.772 505.971 154.847 495.669 159.655L450.938 180.529C446.039 182.815 440.698 184 435.292 184H327.833C325.13 184 322.61 185.365 321.133 187.629L234.738 320.07C233.304 322.268 231.063 323.814 228.499 324.375L187.255 333.397C179.353 335.126 172.775 327.246 175.888 319.78L227.881 195.079C230.078 189.809 226.206 184 220.497 184H111.48C102.751 184 94.6044 179.619 89.7907 172.337Z" fill="#9BB5E5"/>
<path d="M192.338 5.76639L219.901 61.7664C220.574 63.1339 221.965 64 223.49 64H290.662C294.179 64 295.984 59.7865 293.557 57.2402L254.959 16.7434C244.767 6.05093 230.641 0 215.87 0H195.927C192.964 0 191.03 3.10832 192.338 5.76639Z" fill="#0146C7" fill-opacity="0.37"/>
</svg>
