<svg width="610" height="489" viewBox="0 0 610 489" fill="none" xmlns="http://www.w3.org/2000/svg">
<path d="M5.96133 137.111L0.399997 9.19993C0.211662 4.86822 4.53883 1.77298 8.57744 3.35056L30.0475 11.7373C31.3117 12.2311 32.3711 13.139 33.0528 14.3127L93.0933 117.691C96.5736 123.683 102.152 128.172 108.751 130.289L518.057 261.63C523.969 263.527 529.485 266.488 534.334 270.367L569.354 298.384C572.763 301.11 575.714 304.364 578.097 308.021L594.577 333.322C601.942 344.629 595.503 359.795 582.253 362.349L539.445 370.601C531.273 372.176 522.839 371.728 514.88 369.295L382.137 328.711C374.359 326.333 365.958 327.107 358.746 330.866L127.275 451.503C108.839 461.111 87.3583 463.065 67.4909 456.941L44.018 449.705C38.7748 448.088 37.3449 441.343 41.4814 437.738L216.625 285.119C219.372 282.726 218.719 278.292 215.398 276.793L104.872 226.878C100.632 224.963 96.5728 222.673 92.7416 220.035L26.6951 174.561C14.292 166.021 6.61544 152.155 5.96133 137.111Z" fill="#9BB5E5"/>
<path d="M195.688 15.6512L224.505 129.589C225.435 133.266 228.194 136.205 231.805 137.365L329.493 168.749C332.054 169.572 334.32 166.87 333.064 164.492L267.171 39.6884C263.219 32.2028 256.462 26.5881 248.379 24.0735L202.021 9.6509C198.291 8.49043 194.73 11.864 195.688 15.6512Z" fill="#9BB5E5"/>
<circle cx="428.5" cy="363.5" r="34" fill="#9BB5E5"/>
<path d="M380.499 428H260.499C227 438.5 247 503 293.5 464" stroke="#5E88D8" stroke-width="24" stroke-linecap="round"/>
<path d="M343.5 393.5H211.804C175.039 382.002 196.989 311.375 248.021 354.08" stroke="#5E88D8" stroke-width="24" stroke-linecap="round"/>
</svg>
